<svg id="coleus-logo"
    xmlns="http://www.w3.org/2000/svg" viewBox="0 0 1962.33 491.72">
    <path d="M258.8,56Q158.51,56,158.52,249.48V300.6q0,91.88,26.52,144t78.29,52.09q71.16,0,130.69-138.46h11.65l-4.53,144.28H394c-2.58-4.74-5-8.09-7.11-10s-5.29-2.91-9.39-2.91-19.73,3.35-46.9,10a345.78,345.78,0,0,1-82.82,10q-105.46,0-163.37-56.94T26.53,281.51Q26.53,167.33,87,105.2T249.74,43.09a300.87,300.87,0,0,1,77.32,10q37.85,10,44.32,10t9.7-2.91q3.24-2.91,7.12-10h7.12l5.17,140.4H388.85q-29.12-65.34-59.85-100T258.8,56Z" transform="translate(-26.53 -17.86)"/>
    <path d="M493,468.17q-41.42-41.4-41.41-118.72t44.32-119q44.31-41.73,124.55-41.73t119.69,38.49q39.47,38.51,39.47,117.43,0,165-164.34,165Q534.41,509.58,493,468.17Zm162.4-92.52v-55q0-62.74-6.8-91.55t-31.38-28.79q-14.24,0-23,8.09t-12.61,26.85q-5.82,29.12-5.82,88.64v50.47q0,70.51,4.2,84.75a143.11,143.11,0,0,0,8.74,23.29q7.11,15.54,27.82,15.53,25.23,0,33-29.11Q655.42,448.12,655.41,375.65Z" transform="translate(-26.53 -17.86)"/>
    <path d="M795.16,17.86H953.67v473.6H989.9v11.65H797.75V491.46h35.58V29.5H795.16Z" transform="translate(-26.53 -17.86)"/>
    <path d="M1047.16,466.55q-41.73-43-41.73-119.69t46.91-117.43q46.9-40.77,119.37-40.76,146.86,0,141,147.51H1130.3v25.24q0,63.4,16.18,95.75t56.28,32.35q75.06,0,98.35-80.23l11.64,1.94q-12.29,46.59-44.31,72.47t-96.08,25.88Q1088.89,509.58,1047.16,466.55ZM1131,323.24h66.64v-31.7q0-52.41-6.15-71.49T1166.86,201q-18.45,0-27.18,20.38t-8.73,70.2Z" transform="translate(-26.53 -17.86)"/>
    <path d="M1714.54,503.11H1567l-7.12-47.23q-10.35,25.88-30.73,39.79t-60.49,13.91q-100.31,0-100.29-108V206.78h-36.23V195.14h156.57V417.06q0,38.82,5.5,51.11t22,12.29q16.5,0,29.44-20t12.94-55.65v-198h-29.76V195.14H1679V491.46h35.59Z" transform="translate(-26.53 -17.86)"/>
    <path d="M1742.35,509.58V393.77h7.77q16.82,56.28,45.29,78.93t71.17,22.65q66,0,66-42.06,0-18.1-16.17-27.17-25.23-14.24-64.7-22-44-11.65-73.76-31.06-35.6-23.3-35.59-73.76t31.06-80.55q31-30.08,82.82-30.08,31.68,0,65.34,14.88c8.19,3.46,14.45,5.17,18.77,5.17a14.94,14.94,0,0,0,11-4.53q4.53-4.51,11-16.82h7.12v99h-7.76q-33-84.09-102.23-84.11-30.42,0-45.29,10.68t-14.88,26.85q0,9.71,4.53,15.2t7.12,8.09a32.59,32.59,0,0,0,8.41,5.5c3.88,1.94,7.11,3.46,9.7,4.53s6.57,2.49,12,4.21a94.28,94.28,0,0,0,12,3.23q44,11,63.41,19.09a217.33,217.33,0,0,1,36.88,19.73q35.57,24.6,35.58,79.26t-32.35,82.81q-32.35,28.15-88.64,28.15-40.12,0-77.64-18.76c-5.17-3.45-9.28-5.18-12.29-5.18q-14.24,0-27.82,23.94Z" transform="translate(-26.53 -17.86)"/>
</svg>